<?xml version="1.0" encoding="UTF-8" standalone="no"?>
<!DOCTYPE svg PUBLIC "-//W3C//DTD SVG 1.1//EN" "http://www.w3.org/Graphics/SVG/1.1/DTD/svg11.dtd">
<svg width="100%" height="100%" viewBox="0 0 1410 383" version="1.1" xmlns="http://www.w3.org/2000/svg" xmlns:xlink="http://www.w3.org/1999/xlink" xml:space="preserve" xmlns:serif="http://www.serif.com/" style="fill-rule:evenodd;clip-rule:evenodd;stroke-linecap:round;stroke-linejoin:round;stroke-miterlimit:1.5;">
    <g transform="matrix(1,0,0,1,-304.903538,-850.690597)">
        <g transform="matrix(0.773509,0,0,0.773509,182.949391,266.181913)">
            <g transform="matrix(1.29281,0,0,1.29281,-224.883573,-337.658681)">
                <path d="M799.228,970.442C814.141,1015.146 810.227,1097.7 799.228,1123.659C793.751,1136.585 757.459,1132.509 757.459,1132.509C757.459,1132.509 759.5,1201.714 757.459,1214.559C755.267,1228.347 670.052,1146.071 670.052,1146.071C670.052,1146.071 509.549,1210.83 476.675,1173.195C443.801,1135.56 419.049,954.055 472.807,920.262C526.566,886.47 785.81,930.22 799.228,970.442Z" style="fill:white;stroke:rgb(69,93,73);stroke-width:25px;"/>
            </g>
            <g transform="matrix(1.29281,0,0,1.29281,-224.883573,-337.658681)">
                <path d="M799.228,970.442C814.141,1015.146 810.227,1097.7 799.228,1123.659C793.751,1136.585 757.459,1132.509 757.459,1132.509C757.459,1132.509 759.5,1201.714 757.459,1214.559C755.267,1228.347 670.052,1146.071 670.052,1146.071C670.052,1146.071 509.549,1210.83 476.675,1173.195C443.801,1135.56 419.049,954.055 472.807,920.262C526.566,886.47 785.81,930.22 799.228,970.442Z" style="fill:white;stroke:rgb(69,93,73);stroke-width:25px;"/>
            </g>
            <g transform="matrix(1.29281,0,0,1.29281,-224.883573,-337.658681)">
                <path d="M799.228,970.442C814.141,1015.146 810.227,1097.7 799.228,1123.659C793.751,1136.585 757.459,1132.509 757.459,1132.509C757.459,1132.509 759.5,1201.714 757.459,1214.559C755.267,1228.347 670.052,1146.071 670.052,1146.071C670.052,1146.071 509.549,1210.83 476.675,1173.195C443.801,1135.56 419.049,954.055 472.807,920.262C526.566,886.47 785.81,930.22 799.228,970.442Z" style="fill:white;stroke:rgb(69,93,73);stroke-width:25px;"/>
            </g>
            <g transform="matrix(1.29281,0,0,1.29281,-224.883573,-337.658681)">
                <path d="M799.228,970.442C814.141,1015.146 810.227,1097.7 799.228,1123.659C793.751,1136.585 757.459,1132.509 757.459,1132.509C757.459,1132.509 759.5,1201.714 757.459,1214.559C755.267,1228.347 670.052,1146.071 670.052,1146.071C670.052,1146.071 509.549,1210.83 476.675,1173.195C443.801,1135.56 419.049,954.055 472.807,920.262C526.566,886.47 785.81,930.22 799.228,970.442Z" style="fill:white;stroke:rgb(69,93,73);stroke-width:25px;"/>
            </g>
            <g transform="matrix(1.29281,0,0,1.29281,-224.883573,-337.658681)">
                <path d="M799.228,970.442C814.141,1015.146 810.227,1097.7 799.228,1123.659C793.751,1136.585 757.459,1132.509 757.459,1132.509C757.459,1132.509 759.5,1201.714 757.459,1214.559C755.267,1228.347 670.052,1146.071 670.052,1146.071C670.052,1146.071 509.549,1210.83 476.675,1173.195C443.801,1135.56 419.049,954.055 472.807,920.262C526.566,886.47 785.81,930.22 799.228,970.442Z" style="fill:white;stroke:rgb(69,93,73);stroke-width:25px;"/>
            </g>
        </g>
        <g transform="matrix(3.575994,0,0,3.575994,-2689.403564,-2712.851204)">
            <text x="987.995px" y="1047.997px" style="font-family:'Avenir-Roman', 'Avenir', sans-serif;font-size:50px;fill:rgb(69,93,73);">INVER<tspan x="1129.745px 1158.445px " y="1047.997px 1047.997px ">TE</tspan>D</text>
        </g>
        <g transform="matrix(0.729,0,0,0.149,986,1025.640041)">
            <path d="M148.433,232.8C143.2,198.4 136.742,172.6 129.057,155.4C121.371,138.2 113.359,129.6 105.02,129.6C95.373,129.6 86.503,139.2 78.409,158.4C70.315,177.6 63.325,203.4 57.439,235.8C51.552,268.2 46.974,305.8 43.704,348.599C40.433,391.399 38.798,435.999 38.798,482.399C38.798,531.999 40.433,578.199 43.704,620.999C46.974,663.799 51.511,700.999 57.316,732.599C63.121,764.199 70.07,789.199 78.164,807.599C86.257,825.999 95.21,835.199 105.02,835.199C115.649,835.199 125.132,824.999 133.471,804.599C141.81,784.199 149.087,754.799 155.3,716.399L170.752,779.999C162.903,831.199 153.461,868.799 142.424,892.799C131.387,916.799 118.919,928.799 105.02,928.799C92.593,928.799 80.984,917.599 70.192,895.199C59.401,872.799 50.04,841.799 42.109,802.199C34.179,762.599 27.966,715.599 23.469,661.199C18.972,606.799 16.724,547.199 16.724,482.399C16.724,419.999 18.891,361.599 23.224,307.2C27.557,252.8 33.648,205.6 41.496,165.6C49.345,125.6 58.665,94 69.457,70.8C80.248,47.6 92.103,36 105.02,36C116.793,36 128.116,46.4 138.99,67.2C149.863,88 158.979,122 166.337,169.2L148.433,232.8Z" style="fill:rgb(69,93,73);fill-rule:nonzero;"/>
            <path d="M280.141,928.799C266.897,928.799 254.756,917.599 243.719,895.199C232.682,872.799 223.116,841.799 215.023,802.199C206.929,762.599 200.634,715.399 196.137,660.599C191.64,605.799 189.392,546.399 189.392,482.399C189.392,418.399 191.64,358.999 196.137,304.2C200.634,249.4 206.929,202.2 215.023,162.6C223.116,123 232.682,92 243.719,69.6C254.756,47.2 266.897,36 280.141,36C293.385,36 305.526,47.2 316.563,69.6C327.6,92 337.166,123 345.259,162.6C353.353,202.2 359.648,249.4 364.145,304.2C368.642,358.999 370.89,418.399 370.89,482.399C370.89,546.399 368.642,605.799 364.145,660.599C359.648,715.399 353.353,762.599 345.259,802.199C337.166,841.799 327.6,872.799 316.563,895.199C305.526,917.599 293.385,928.799 280.141,928.799ZM280.141,835.199C290.279,835.199 299.558,825.999 307.979,807.599C316.4,789.199 323.635,763.999 329.685,731.999C335.735,699.999 340.436,662.599 343.788,619.799C347.14,576.999 348.816,531.199 348.816,482.399C348.816,433.599 347.14,387.799 343.788,344.999C340.436,302.2 335.735,264.8 329.685,232.8C323.635,200.8 316.4,175.6 307.979,157.2C299.558,138.8 290.279,129.6 280.141,129.6C270.003,129.6 260.724,138.8 252.303,157.2C243.882,175.6 236.647,200.8 230.597,232.8C224.547,264.8 219.846,302.2 216.494,344.999C213.142,387.799 211.466,433.599 211.466,482.399C211.466,531.199 213.142,576.999 216.494,619.799C219.846,662.599 224.547,699.999 230.597,731.999C236.647,763.999 243.882,789.199 252.303,807.599C260.724,825.999 270.003,835.199 280.141,835.199Z" style="fill:rgb(69,93,73);fill-rule:nonzero;"/>
            <path d="M631.945,57.6L662.604,57.6L715.981,723.599L716.471,723.599L775.826,57.6L805.748,57.6L805.748,907.199L785.146,907.199L785.146,194.4L784.655,194.4L722.358,907.199L709.849,907.199L647.551,194.4L652.548,194.4L652.548,907.199L631.945,907.199L631.945,57.6Z" style="fill:rgb(69,93,73);fill-rule:nonzero;"/>
            <g transform="matrix(1,0,0,1,-215.363512,3.747459)">
                <path d="M631.945,57.6L662.604,57.6L715.981,723.599L716.471,723.599L775.826,57.6L805.748,57.6L805.748,907.199L785.146,907.199L785.146,194.4L784.655,194.4L722.358,907.199L709.849,907.199L647.551,194.4L652.548,194.4L652.548,907.199L631.945,907.199L631.945,57.6Z" style="fill:rgb(69,93,73);fill-rule:nonzero;"/>
            </g>
            <path d="M905.327,57.6L924.703,57.6L998.528,907.199L974.492,907.199L956.833,698.399L870.008,698.399L852.104,907.199L828.804,907.199L905.327,57.6ZM914.647,187.2L914.157,187.2L878.102,604.799L948.984,604.799L914.647,187.2Z" style="fill:rgb(69,93,73);fill-rule:nonzero;"/>
            <g transform="matrix(-1.061054,0,0,5.191333,-46.016259,-5432.604888)">
                <g transform="matrix(1.29281,0,0,1.29281,-224.883573,-337.658681)">
                    <path d="M799.228,970.442C814.141,1015.146 810.227,1097.7 799.228,1123.659C793.751,1136.585 757.459,1132.509 757.459,1132.509C757.459,1132.509 759.5,1201.714 757.459,1214.559C755.267,1228.347 670.052,1146.071 670.052,1146.071C670.052,1146.071 509.549,1210.83 476.675,1173.195C443.801,1135.56 419.049,954.055 472.807,920.262C526.566,886.47 785.81,930.22 799.228,970.442Z" style="fill:rgb(204,210,205);stroke:rgb(69,93,73);stroke-width:25px;"/>
                </g>
                <g transform="matrix(1.29281,0,0,1.29281,-224.883573,-337.658681)">
                    <path d="M799.228,970.442C814.141,1015.146 810.227,1097.7 799.228,1123.659C793.751,1136.585 757.459,1132.509 757.459,1132.509C757.459,1132.509 759.5,1201.714 757.459,1214.559C755.267,1228.347 670.052,1146.071 670.052,1146.071C670.052,1146.071 509.549,1210.83 476.675,1173.195C443.801,1135.56 419.049,954.055 472.807,920.262C526.566,886.47 785.81,930.22 799.228,970.442Z" style="fill:rgb(204,210,205);stroke:rgb(69,93,73);stroke-width:25px;"/>
                </g>
                <g transform="matrix(1.29281,0,0,1.29281,-224.883573,-337.658681)">
                    <path d="M799.228,970.442C814.141,1015.146 810.227,1097.7 799.228,1123.659C793.751,1136.585 757.459,1132.509 757.459,1132.509C757.459,1132.509 759.5,1201.714 757.459,1214.559C755.267,1228.347 670.052,1146.071 670.052,1146.071C670.052,1146.071 509.549,1210.83 476.675,1173.195C443.801,1135.56 419.049,954.055 472.807,920.262C526.566,886.47 785.81,930.22 799.228,970.442Z" style="fill:rgb(204,210,205);stroke:rgb(69,93,73);stroke-width:25px;"/>
                </g>
                <g transform="matrix(1.29281,0,0,1.29281,-224.883573,-337.658681)">
                    <path d="M799.228,970.442C814.141,1015.146 810.227,1097.7 799.228,1123.659C793.751,1136.585 757.459,1132.509 757.459,1132.509C757.459,1132.509 759.5,1201.714 757.459,1214.559C755.267,1228.347 670.052,1146.071 670.052,1146.071C670.052,1146.071 509.549,1210.83 476.675,1173.195C443.801,1135.56 419.049,954.055 472.807,920.262C526.566,886.47 785.81,930.22 799.228,970.442Z" style="fill:rgb(204,210,205);stroke:rgb(69,93,73);stroke-width:25px;"/>
                </g>
                <g transform="matrix(1.29281,0,0,1.29281,-224.883573,-337.658681)">
                    <path d="M799.228,970.442C814.141,1015.146 810.227,1097.7 799.228,1123.659C793.751,1136.585 757.459,1132.509 757.459,1132.509C757.459,1132.509 759.5,1201.714 757.459,1214.559C755.267,1228.347 670.052,1146.071 670.052,1146.071C670.052,1146.071 509.549,1210.83 476.675,1173.195C443.801,1135.56 419.049,954.055 472.807,920.262C526.566,886.47 785.81,930.22 799.228,970.442Z" style="fill:rgb(204,210,205);stroke:rgb(69,93,73);stroke-width:25px;"/>
                </g>
            </g>
        </g>
    </g>
</svg>
